<?xml version="1.0" encoding="utf-8"?><svg width="auto" height="5720" style="overflow:visible " version="1.1" xmlns="http://www.w3.org/2000/svg"><rect x="20" y="20" width="200" height="40" style="fill:white;stroke:black;stroke-width:1" /><text x="30" y="30" font-size="10" style="fill:blue">xs:schema</text><text x="30" y="40" font-size="8" style="fill:black">elementFormDefault: qualified</text><text x="30" y="50" font-size="8" style="fill:black">xmlns:xs: http://www.w3.org/2001/XMLSchema</text><rect x="240" y="20" width="200" height="40" style="fill:white;stroke:black;stroke-width:1" /><text x="250" y="30" font-size="10" style="fill:blue">xs:element</text><path d="M220 40 C240 40 220 40 240 40" style="fill:transparent;stroke:black" /><text x="250" y="40" font-size="8" style="fill:black">name: rutas</text><rect x="460" y="20" width="200" height="40" style="fill:white;stroke:black;stroke-width:1" /><text x="470" y="30" font-size="10" style="fill:blue">xs:complexType</text><path d="M440 40 C460 40 440 40 460 40" style="fill:transparent;stroke:black" /><rect x="680" y="20" width="200" height="40" style="fill:white;stroke:black;stroke-width:1" /><text x="690" y="30" font-size="10" style="fill:blue">xs:sequence</text><path d="M660 40 C680 40 660 40 680 40" style="fill:transparent;stroke:black" /><rect x="900" y="20" width="200" height="40" style="fill:white;stroke:black;stroke-width:1" /><text x="910" y="30" font-size="10" style="fill:blue">xs:element</text><path d="M880 40 C900 40 880 40 900 40" style="fill:transparent;stroke:black" /><text x="910" y="40" font-size="8" style="fill:black">minOccurs: 3</text><text x="910" y="50" font-size="8" style="fill:black">maxOccurs: unbounded</text><text x="910" y="60" font-size="8" style="fill:black">ref: ruta</text><rect x="240" y="220" width="200" height="40" style="fill:white;stroke:black;stroke-width:1" /><text x="250" y="230" font-size="10" style="fill:blue">xs:element</text><path d="M220 40 C240 40 220 240 240 240" style="fill:transparent;stroke:black" /><text x="250" y="240" font-size="8" style="fill:black">name: ruta</text><rect x="460" y="220" width="200" height="40" style="fill:white;stroke:black;stroke-width:1" /><text x="470" y="230" font-size="10" style="fill:blue">xs:complexType</text><path d="M440 240 C460 240 440 240 460 240" style="fill:transparent;stroke:black" /><rect x="680" y="220" width="200" height="40" style="fill:white;stroke:black;stroke-width:1" /><text x="690" y="230" font-size="10" style="fill:blue">xs:sequence</text><path d="M660 240 C680 240 660 240 680 240" style="fill:transparent;stroke:black" /><rect x="900" y="220" width="200" height="40" style="fill:white;stroke:black;stroke-width:1" /><text x="910" y="230" font-size="10" style="fill:blue">xs:element</text><path d="M880 240 C900 240 880 240 900 240" style="fill:transparent;stroke:black" /><text x="910" y="240" font-size="8" style="fill:black">ref: tipo</text><text x="910" y="250" font-size="8" style="fill:black">minOccurs: 1</text><text x="910" y="260" font-size="8" style="fill:black">maxOccurs: 1</text><rect x="900" y="270" width="200" height="40" style="fill:white;stroke:black;stroke-width:1" /><text x="910" y="280" font-size="10" style="fill:blue">xs:element</text><path d="M880 240 C900 240 880 290 900 290" style="fill:transparent;stroke:black" /><text x="910" y="290" font-size="8" style="fill:black">ref: dificultad</text><text x="910" y="300" font-size="8" style="fill:black">minOccurs: 1</text><text x="910" y="310" font-size="8" style="fill:black">maxOccurs: 1</text><rect x="900" y="320" width="200" height="40" style="fill:white;stroke:black;stroke-width:1" /><text x="910" y="330" font-size="10" style="fill:blue">xs:element</text><path d="M880 240 C900 240 880 340 900 340" style="fill:transparent;stroke:black" /><text x="910" y="340" font-size="8" style="fill:black">ref: tiempo</text><text x="910" y="350" font-size="8" style="fill:black">minOccurs: 1</text><text x="910" y="360" font-size="8" style="fill:black">maxOccurs: 1</text><rect x="900" y="370" width="200" height="40" style="fill:white;stroke:black;stroke-width:1" /><text x="910" y="380" font-size="10" style="fill:blue">xs:element</text><path d="M880 240 C900 240 880 390 900 390" style="fill:transparent;stroke:black" /><text x="910" y="390" font-size="8" style="fill:black">ref: agencia</text><text x="910" y="400" font-size="8" style="fill:black">minOccurs: 1</text><text x="910" y="410" font-size="8" style="fill:black">maxOccurs: 1</text><rect x="900" y="420" width="200" height="40" style="fill:white;stroke:black;stroke-width:1" /><text x="910" y="430" font-size="10" style="fill:blue">xs:element</text><path d="M880 240 C900 240 880 440 900 440" style="fill:transparent;stroke:black" /><text x="910" y="440" font-size="8" style="fill:black">ref: descripcion</text><text x="910" y="450" font-size="8" style="fill:black">minOccurs: 1</text><text x="910" y="460" font-size="8" style="fill:black">maxOccurs: 1</text><rect x="900" y="470" width="200" height="40" style="fill:white;stroke:black;stroke-width:1" /><text x="910" y="480" font-size="10" style="fill:blue">xs:element</text><path d="M880 240 C900 240 880 490 900 490" style="fill:transparent;stroke:black" /><text x="910" y="490" font-size="8" style="fill:black">ref: aptos</text><text x="910" y="500" font-size="8" style="fill:black">minOccurs: 1</text><text x="910" y="510" font-size="8" style="fill:black">maxOccurs: 1</text><rect x="900" y="520" width="200" height="40" style="fill:white;stroke:black;stroke-width:1" /><text x="910" y="530" font-size="10" style="fill:blue">xs:element</text><path d="M880 240 C900 240 880 540 900 540" style="fill:transparent;stroke:black" /><text x="910" y="540" font-size="8" style="fill:black">ref: lugar_inicio</text><text x="910" y="550" font-size="8" style="fill:black">minOccurs: 1</text><text x="910" y="560" font-size="8" style="fill:black">maxOccurs: 1</text><rect x="900" y="570" width="200" height="40" style="fill:white;stroke:black;stroke-width:1" /><text x="910" y="580" font-size="10" style="fill:blue">xs:element</text><path d="M880 240 C900 240 880 590 900 590" style="fill:transparent;stroke:black" /><text x="910" y="590" font-size="8" style="fill:black">ref: direccion_inicio</text><text x="910" y="600" font-size="8" style="fill:black">minOccurs: 1</text><text x="910" y="610" font-size="8" style="fill:black">maxOccurs: 1</text><rect x="900" y="620" width="200" height="40" style="fill:white;stroke:black;stroke-width:1" /><text x="910" y="630" font-size="10" style="fill:blue">xs:element</text><path d="M880 240 C900 240 880 640 900 640" style="fill:transparent;stroke:black" /><text x="910" y="640" font-size="8" style="fill:black">ref: coordenadas</text><text x="910" y="650" font-size="8" style="fill:black">minOccurs: 1</text><text x="910" y="660" font-size="8" style="fill:black">maxOccurs: 1</text><rect x="900" y="670" width="200" height="40" style="fill:white;stroke:black;stroke-width:1" /><text x="910" y="680" font-size="10" style="fill:blue">xs:element</text><path d="M880 240 C900 240 880 690 900 690" style="fill:transparent;stroke:black" /><text x="910" y="690" font-size="8" style="fill:black">ref: referencias</text><text x="910" y="700" font-size="8" style="fill:black">minOccurs: 1</text><text x="910" y="710" font-size="8" style="fill:black">maxOccurs: 1</text><rect x="900" y="720" width="200" height="40" style="fill:white;stroke:black;stroke-width:1" /><text x="910" y="730" font-size="10" style="fill:blue">xs:element</text><path d="M880 240 C900 240 880 740 900 740" style="fill:transparent;stroke:black" /><text x="910" y="740" font-size="8" style="fill:black">ref: hitos</text><text x="910" y="750" font-size="8" style="fill:black">minOccurs: 1</text><text x="910" y="760" font-size="8" style="fill:black">maxOccurs: 1</text><rect x="680" y="820" width="200" height="40" style="fill:white;stroke:black;stroke-width:1" /><text x="690" y="830" font-size="10" style="fill:blue">xs:attribute</text><path d="M660 240 C680 240 660 840 680 840" style="fill:transparent;stroke:black" /><text x="690" y="840" font-size="8" style="fill:black">name: nombre</text><text x="690" y="850" font-size="8" style="fill:black">type: xs:string</text><text x="690" y="860" font-size="8" style="fill:black">use: required</text><rect x="680" y="870" width="200" height="40" style="fill:white;stroke:black;stroke-width:1" /><text x="690" y="880" font-size="10" style="fill:blue">xs:attribute</text><path d="M660 240 C680 240 660 890 680 890" style="fill:transparent;stroke:black" /><text x="690" y="890" font-size="8" style="fill:black">name: recomendacion</text><text x="690" y="900" font-size="8" style="fill:black">use: required</text><rect x="900" y="870" width="200" height="40" style="fill:white;stroke:black;stroke-width:1" /><text x="910" y="880" font-size="10" style="fill:blue">xs:simpleType</text><path d="M880 890 C900 890 880 890 900 890" style="fill:transparent;stroke:black" /><rect x="1120" y="870" width="200" height="40" style="fill:white;stroke:black;stroke-width:1" /><text x="1130" y="880" font-size="10" style="fill:blue">xs:restriction</text><path d="M1100 890 C1120 890 1100 890 1120 890" style="fill:transparent;stroke:black" /><text x="1130" y="890" font-size="8" style="fill:black">base: xs:integer</text><rect x="1340" y="870" width="200" height="40" style="fill:white;stroke:black;stroke-width:1" /><text x="1350" y="880" font-size="10" style="fill:blue">xs:minInclusive</text><path d="M1320 890 C1340 890 1320 890 1340 890" style="fill:transparent;stroke:black" /><text x="1350" y="890" font-size="8" style="fill:black">value: 0</text><rect x="1340" y="920" width="200" height="40" style="fill:white;stroke:black;stroke-width:1" /><text x="1350" y="930" font-size="10" style="fill:blue">xs:maxInclusive</text><path d="M1320 890 C1340 890 1320 940 1340 940" style="fill:transparent;stroke:black" /><text x="1350" y="940" font-size="8" style="fill:black">value: 10</text><rect x="240" y="1220" width="200" height="40" style="fill:white;stroke:black;stroke-width:1" /><text x="250" y="1230" font-size="10" style="fill:blue">xs:element</text><path d="M220 40 C240 40 220 1240 240 1240" style="fill:transparent;stroke:black" /><text x="250" y="1240" font-size="8" style="fill:black">name: tipo</text><text x="250" y="1250" font-size="8" style="fill:black">type: xs:string</text><rect x="240" y="1270" width="200" height="40" style="fill:white;stroke:black;stroke-width:1" /><text x="250" y="1280" font-size="10" style="fill:blue">xs:element</text><path d="M220 40 C240 40 220 1290 240 1290" style="fill:transparent;stroke:black" /><text x="250" y="1290" font-size="8" style="fill:black">name: dificultad</text><rect x="460" y="1270" width="200" height="40" style="fill:white;stroke:black;stroke-width:1" /><text x="470" y="1280" font-size="10" style="fill:blue">xs:simpleType</text><path d="M440 1290 C460 1290 440 1290 460 1290" style="fill:transparent;stroke:black" /><rect x="680" y="1270" width="200" height="40" style="fill:white;stroke:black;stroke-width:1" /><text x="690" y="1280" font-size="10" style="fill:blue">xs:restriction</text><path d="M660 1290 C680 1290 660 1290 680 1290" style="fill:transparent;stroke:black" /><text x="690" y="1290" font-size="8" style="fill:black">base: xs:string</text><rect x="900" y="1270" width="200" height="40" style="fill:white;stroke:black;stroke-width:1" /><text x="910" y="1280" font-size="10" style="fill:blue">xs:enumeration</text><path d="M880 1290 C900 1290 880 1290 900 1290" style="fill:transparent;stroke:black" /><text x="910" y="1290" font-size="8" style="fill:black">value: baja</text><rect x="900" y="1320" width="200" height="40" style="fill:white;stroke:black;stroke-width:1" /><text x="910" y="1330" font-size="10" style="fill:blue">xs:enumeration</text><path d="M880 1290 C900 1290 880 1340 900 1340" style="fill:transparent;stroke:black" /><text x="910" y="1340" font-size="8" style="fill:black">value: media</text><rect x="900" y="1370" width="200" height="40" style="fill:white;stroke:black;stroke-width:1" /><text x="910" y="1380" font-size="10" style="fill:blue">xs:enumeration</text><path d="M880 1290 C900 1290 880 1390 900 1390" style="fill:transparent;stroke:black" /><text x="910" y="1390" font-size="8" style="fill:black">value: alta</text><rect x="240" y="1570" width="200" height="40" style="fill:white;stroke:black;stroke-width:1" /><text x="250" y="1580" font-size="10" style="fill:blue">xs:element</text><path d="M220 40 C240 40 220 1590 240 1590" style="fill:transparent;stroke:black" /><text x="250" y="1590" font-size="8" style="fill:black">name: tiempo</text><text x="250" y="1600" font-size="8" style="fill:black">type: xs:string</text><rect x="240" y="1620" width="200" height="40" style="fill:white;stroke:black;stroke-width:1" /><text x="250" y="1630" font-size="10" style="fill:blue">xs:element</text><path d="M220 40 C240 40 220 1640 240 1640" style="fill:transparent;stroke:black" /><text x="250" y="1640" font-size="8" style="fill:black">name: agencia</text><text x="250" y="1650" font-size="8" style="fill:black">type: xs:string</text><text x="250" y="1660" font-size="8" style="fill:black">default: Sin agencia</text><rect x="240" y="1670" width="200" height="40" style="fill:white;stroke:black;stroke-width:1" /><text x="250" y="1680" font-size="10" style="fill:blue">xs:element</text><path d="M220 40 C240 40 220 1690 240 1690" style="fill:transparent;stroke:black" /><text x="250" y="1690" font-size="8" style="fill:black">name: descripcion</text><text x="250" y="1700" font-size="8" style="fill:black">type: xs:string</text><rect x="240" y="1720" width="200" height="40" style="fill:white;stroke:black;stroke-width:1" /><text x="250" y="1730" font-size="10" style="fill:blue">xs:element</text><path d="M220 40 C240 40 220 1740 240 1740" style="fill:transparent;stroke:black" /><text x="250" y="1740" font-size="8" style="fill:black">name: aptos</text><text x="250" y="1750" font-size="8" style="fill:black">type: xs:string</text><rect x="240" y="1770" width="200" height="40" style="fill:white;stroke:black;stroke-width:1" /><text x="250" y="1780" font-size="10" style="fill:blue">xs:element</text><path d="M220 40 C240 40 220 1790 240 1790" style="fill:transparent;stroke:black" /><text x="250" y="1790" font-size="8" style="fill:black">name: lugar_inicio</text><text x="250" y="1800" font-size="8" style="fill:black">type: xs:string</text><rect x="240" y="1820" width="200" height="40" style="fill:white;stroke:black;stroke-width:1" /><text x="250" y="1830" font-size="10" style="fill:blue">xs:element</text><path d="M220 40 C240 40 220 1840 240 1840" style="fill:transparent;stroke:black" /><text x="250" y="1840" font-size="8" style="fill:black">name: direccion_inicio</text><text x="250" y="1850" font-size="8" style="fill:black">type: xs:string</text><rect x="240" y="1870" width="200" height="40" style="fill:white;stroke:black;stroke-width:1" /><text x="250" y="1880" font-size="10" style="fill:blue">xs:element</text><path d="M220 40 C240 40 220 1890 240 1890" style="fill:transparent;stroke:black" /><text x="250" y="1890" font-size="8" style="fill:black">name: coordenadas</text><rect x="460" y="1870" width="200" height="40" style="fill:white;stroke:black;stroke-width:1" /><text x="470" y="1880" font-size="10" style="fill:blue">xs:complexType</text><path d="M440 1890 C460 1890 440 1890 460 1890" style="fill:transparent;stroke:black" /><rect x="680" y="1870" width="200" height="40" style="fill:white;stroke:black;stroke-width:1" /><text x="690" y="1880" font-size="10" style="fill:blue">xs:sequence</text><path d="M660 1890 C680 1890 660 1890 680 1890" style="fill:transparent;stroke:black" /><rect x="900" y="1870" width="200" height="40" style="fill:white;stroke:black;stroke-width:1" /><text x="910" y="1880" font-size="10" style="fill:blue">xs:element</text><path d="M880 1890 C900 1890 880 1890 900 1890" style="fill:transparent;stroke:black" /><text x="910" y="1890" font-size="8" style="fill:black">ref: latitud</text><text x="910" y="1900" font-size="8" style="fill:black">minOccurs: 1</text><text x="910" y="1910" font-size="8" style="fill:black">maxOccurs: 1</text><rect x="900" y="1920" width="200" height="40" style="fill:white;stroke:black;stroke-width:1" /><text x="910" y="1930" font-size="10" style="fill:blue">xs:element</text><path d="M880 1890 C900 1890 880 1940 900 1940" style="fill:transparent;stroke:black" /><text x="910" y="1940" font-size="8" style="fill:black">ref: longitud</text><text x="910" y="1950" font-size="8" style="fill:black">minOccurs: 1</text><text x="910" y="1960" font-size="8" style="fill:black">maxOccurs: 1</text><rect x="900" y="1970" width="200" height="40" style="fill:white;stroke:black;stroke-width:1" /><text x="910" y="1980" font-size="10" style="fill:blue">xs:element</text><path d="M880 1890 C900 1890 880 1990 900 1990" style="fill:transparent;stroke:black" /><text x="910" y="1990" font-size="8" style="fill:black">ref: altitud</text><text x="910" y="2000" font-size="8" style="fill:black">minOccurs: 1</text><text x="910" y="2010" font-size="8" style="fill:black">maxOccurs: 1</text><rect x="240" y="2170" width="200" height="40" style="fill:white;stroke:black;stroke-width:1" /><text x="250" y="2180" font-size="10" style="fill:blue">xs:element</text><path d="M220 40 C240 40 220 2190 240 2190" style="fill:transparent;stroke:black" /><text x="250" y="2190" font-size="8" style="fill:black">name: latitud</text><rect x="460" y="2170" width="200" height="40" style="fill:white;stroke:black;stroke-width:1" /><text x="470" y="2180" font-size="10" style="fill:blue">xs:complexType</text><path d="M440 2190 C460 2190 440 2190 460 2190" style="fill:transparent;stroke:black" /><rect x="680" y="2170" width="200" height="40" style="fill:white;stroke:black;stroke-width:1" /><text x="690" y="2180" font-size="10" style="fill:blue">xs:sequence</text><path d="M660 2190 C680 2190 660 2190 680 2190" style="fill:transparent;stroke:black" /><rect x="900" y="2170" width="200" height="40" style="fill:white;stroke:black;stroke-width:1" /><text x="910" y="2180" font-size="10" style="fill:blue">xs:element</text><path d="M880 2190 C900 2190 880 2190 900 2190" style="fill:transparent;stroke:black" /><text x="910" y="2190" font-size="8" style="fill:black">ref: grados</text><text x="910" y="2200" font-size="8" style="fill:black">minOccurs: 1</text><text x="910" y="2210" font-size="8" style="fill:black">maxOccurs: 1</text><rect x="900" y="2220" width="200" height="40" style="fill:white;stroke:black;stroke-width:1" /><text x="910" y="2230" font-size="10" style="fill:blue">xs:element</text><path d="M880 2190 C900 2190 880 2240 900 2240" style="fill:transparent;stroke:black" /><text x="910" y="2240" font-size="8" style="fill:black">ref: minutos</text><text x="910" y="2250" font-size="8" style="fill:black">minOccurs: 1</text><text x="910" y="2260" font-size="8" style="fill:black">maxOccurs: 1</text><rect x="900" y="2270" width="200" height="40" style="fill:white;stroke:black;stroke-width:1" /><text x="910" y="2280" font-size="10" style="fill:blue">xs:element</text><path d="M880 2190 C900 2190 880 2290 900 2290" style="fill:transparent;stroke:black" /><text x="910" y="2290" font-size="8" style="fill:black">ref: segundos</text><text x="910" y="2300" font-size="8" style="fill:black">minOccurs: 1</text><text x="910" y="2310" font-size="8" style="fill:black">maxOccurs: 1</text><rect x="680" y="2370" width="200" height="40" style="fill:white;stroke:black;stroke-width:1" /><text x="690" y="2380" font-size="10" style="fill:blue">xs:attribute</text><path d="M660 2190 C680 2190 660 2390 680 2390" style="fill:transparent;stroke:black" /><text x="690" y="2390" font-size="8" style="fill:black">name: var</text><text x="690" y="2400" font-size="8" style="fill:black">use: required</text><rect x="900" y="2370" width="200" height="40" style="fill:white;stroke:black;stroke-width:1" /><text x="910" y="2380" font-size="10" style="fill:blue">xs:simpleType</text><path d="M880 2390 C900 2390 880 2390 900 2390" style="fill:transparent;stroke:black" /><rect x="1120" y="2370" width="200" height="40" style="fill:white;stroke:black;stroke-width:1" /><text x="1130" y="2380" font-size="10" style="fill:blue">xs:restriction</text><path d="M1100 2390 C1120 2390 1100 2390 1120 2390" style="fill:transparent;stroke:black" /><text x="1130" y="2390" font-size="8" style="fill:black">base: xs:string</text><rect x="1340" y="2370" width="200" height="40" style="fill:white;stroke:black;stroke-width:1" /><text x="1350" y="2380" font-size="10" style="fill:blue">xs:enumeration</text><path d="M1320 2390 C1340 2390 1320 2390 1340 2390" style="fill:transparent;stroke:black" /><text x="1350" y="2390" font-size="8" style="fill:black">value: N</text><rect x="1340" y="2420" width="200" height="40" style="fill:white;stroke:black;stroke-width:1" /><text x="1350" y="2430" font-size="10" style="fill:blue">xs:enumeration</text><path d="M1320 2390 C1340 2390 1320 2440 1340 2440" style="fill:transparent;stroke:black" /><text x="1350" y="2440" font-size="8" style="fill:black">value: S</text><rect x="1340" y="2470" width="200" height="40" style="fill:white;stroke:black;stroke-width:1" /><text x="1350" y="2480" font-size="10" style="fill:blue">xs:enumeration</text><path d="M1320 2390 C1340 2390 1320 2490 1340 2490" style="fill:transparent;stroke:black" /><text x="1350" y="2490" font-size="8" style="fill:black">value: W</text><rect x="1340" y="2520" width="200" height="40" style="fill:white;stroke:black;stroke-width:1" /><text x="1350" y="2530" font-size="10" style="fill:blue">xs:enumeration</text><path d="M1320 2390 C1340 2390 1320 2540 1340 2540" style="fill:transparent;stroke:black" /><text x="1350" y="2540" font-size="8" style="fill:black">value: O</text><rect x="240" y="2820" width="200" height="40" style="fill:white;stroke:black;stroke-width:1" /><text x="250" y="2830" font-size="10" style="fill:blue">xs:element</text><path d="M220 40 C240 40 220 2840 240 2840" style="fill:transparent;stroke:black" /><text x="250" y="2840" font-size="8" style="fill:black">name: grados</text><text x="250" y="2850" font-size="8" style="fill:black">type: xs:float</text><rect x="240" y="2870" width="200" height="40" style="fill:white;stroke:black;stroke-width:1" /><text x="250" y="2880" font-size="10" style="fill:blue">xs:element</text><path d="M220 40 C240 40 220 2890 240 2890" style="fill:transparent;stroke:black" /><text x="250" y="2890" font-size="8" style="fill:black">name: minutos</text><text x="250" y="2900" font-size="8" style="fill:black">type: xs:float</text><rect x="240" y="2920" width="200" height="40" style="fill:white;stroke:black;stroke-width:1" /><text x="250" y="2930" font-size="10" style="fill:blue">xs:element</text><path d="M220 40 C240 40 220 2940 240 2940" style="fill:transparent;stroke:black" /><text x="250" y="2940" font-size="8" style="fill:black">name: segundos</text><text x="250" y="2950" font-size="8" style="fill:black">type: xs:float</text><rect x="240" y="2970" width="200" height="40" style="fill:white;stroke:black;stroke-width:1" /><text x="250" y="2980" font-size="10" style="fill:blue">xs:element</text><path d="M220 40 C240 40 220 2990 240 2990" style="fill:transparent;stroke:black" /><text x="250" y="2990" font-size="8" style="fill:black">name: longitud</text><rect x="460" y="2970" width="200" height="40" style="fill:white;stroke:black;stroke-width:1" /><text x="470" y="2980" font-size="10" style="fill:blue">xs:complexType</text><path d="M440 2990 C460 2990 440 2990 460 2990" style="fill:transparent;stroke:black" /><rect x="680" y="2970" width="200" height="40" style="fill:white;stroke:black;stroke-width:1" /><text x="690" y="2980" font-size="10" style="fill:blue">xs:sequence</text><path d="M660 2990 C680 2990 660 2990 680 2990" style="fill:transparent;stroke:black" /><rect x="900" y="2970" width="200" height="40" style="fill:white;stroke:black;stroke-width:1" /><text x="910" y="2980" font-size="10" style="fill:blue">xs:element</text><path d="M880 2990 C900 2990 880 2990 900 2990" style="fill:transparent;stroke:black" /><text x="910" y="2990" font-size="8" style="fill:black">ref: grados</text><text x="910" y="3000" font-size="8" style="fill:black">minOccurs: 1</text><text x="910" y="3010" font-size="8" style="fill:black">maxOccurs: 1</text><rect x="900" y="3020" width="200" height="40" style="fill:white;stroke:black;stroke-width:1" /><text x="910" y="3030" font-size="10" style="fill:blue">xs:element</text><path d="M880 2990 C900 2990 880 3040 900 3040" style="fill:transparent;stroke:black" /><text x="910" y="3040" font-size="8" style="fill:black">ref: minutos</text><text x="910" y="3050" font-size="8" style="fill:black">minOccurs: 1</text><text x="910" y="3060" font-size="8" style="fill:black">maxOccurs: 1</text><rect x="900" y="3070" width="200" height="40" style="fill:white;stroke:black;stroke-width:1" /><text x="910" y="3080" font-size="10" style="fill:blue">xs:element</text><path d="M880 2990 C900 2990 880 3090 900 3090" style="fill:transparent;stroke:black" /><text x="910" y="3090" font-size="8" style="fill:black">ref: segundos</text><text x="910" y="3100" font-size="8" style="fill:black">minOccurs: 1</text><text x="910" y="3110" font-size="8" style="fill:black">maxOccurs: 1</text><rect x="680" y="3170" width="200" height="40" style="fill:white;stroke:black;stroke-width:1" /><text x="690" y="3180" font-size="10" style="fill:blue">xs:attribute</text><path d="M660 2990 C680 2990 660 3190 680 3190" style="fill:transparent;stroke:black" /><text x="690" y="3190" font-size="8" style="fill:black">name: var</text><text x="690" y="3200" font-size="8" style="fill:black">use: required</text><rect x="900" y="3170" width="200" height="40" style="fill:white;stroke:black;stroke-width:1" /><text x="910" y="3180" font-size="10" style="fill:blue">xs:simpleType</text><path d="M880 3190 C900 3190 880 3190 900 3190" style="fill:transparent;stroke:black" /><rect x="1120" y="3170" width="200" height="40" style="fill:white;stroke:black;stroke-width:1" /><text x="1130" y="3180" font-size="10" style="fill:blue">xs:restriction</text><path d="M1100 3190 C1120 3190 1100 3190 1120 3190" style="fill:transparent;stroke:black" /><text x="1130" y="3190" font-size="8" style="fill:black">base: xs:string</text><rect x="1340" y="3170" width="200" height="40" style="fill:white;stroke:black;stroke-width:1" /><text x="1350" y="3180" font-size="10" style="fill:blue">xs:enumeration</text><path d="M1320 3190 C1340 3190 1320 3190 1340 3190" style="fill:transparent;stroke:black" /><text x="1350" y="3190" font-size="8" style="fill:black">value: N</text><rect x="1340" y="3220" width="200" height="40" style="fill:white;stroke:black;stroke-width:1" /><text x="1350" y="3230" font-size="10" style="fill:blue">xs:enumeration</text><path d="M1320 3190 C1340 3190 1320 3240 1340 3240" style="fill:transparent;stroke:black" /><text x="1350" y="3240" font-size="8" style="fill:black">value: S</text><rect x="1340" y="3270" width="200" height="40" style="fill:white;stroke:black;stroke-width:1" /><text x="1350" y="3280" font-size="10" style="fill:blue">xs:enumeration</text><path d="M1320 3190 C1340 3190 1320 3290 1340 3290" style="fill:transparent;stroke:black" /><text x="1350" y="3290" font-size="8" style="fill:black">value: W</text><rect x="1340" y="3320" width="200" height="40" style="fill:white;stroke:black;stroke-width:1" /><text x="1350" y="3330" font-size="10" style="fill:blue">xs:enumeration</text><path d="M1320 3190 C1340 3190 1320 3340 1340 3340" style="fill:transparent;stroke:black" /><text x="1350" y="3340" font-size="8" style="fill:black">value: O</text><rect x="240" y="3620" width="200" height="40" style="fill:white;stroke:black;stroke-width:1" /><text x="250" y="3630" font-size="10" style="fill:blue">xs:element</text><path d="M220 40 C240 40 220 3640 240 3640" style="fill:transparent;stroke:black" /><text x="250" y="3640" font-size="8" style="fill:black">name: altitud</text><rect x="460" y="3620" width="200" height="40" style="fill:white;stroke:black;stroke-width:1" /><text x="470" y="3630" font-size="10" style="fill:blue">xs:complexType</text><path d="M440 3640 C460 3640 440 3640 460 3640" style="fill:transparent;stroke:black" /><rect x="680" y="3620" width="200" height="40" style="fill:white;stroke:black;stroke-width:1" /><text x="690" y="3630" font-size="10" style="fill:blue">xs:simpleContent</text><path d="M660 3640 C680 3640 660 3640 680 3640" style="fill:transparent;stroke:black" /><rect x="900" y="3620" width="200" height="40" style="fill:white;stroke:black;stroke-width:1" /><text x="910" y="3630" font-size="10" style="fill:blue">xs:extension</text><path d="M880 3640 C900 3640 880 3640 900 3640" style="fill:transparent;stroke:black" /><text x="910" y="3640" font-size="8" style="fill:black">base: xs:float</text><rect x="1120" y="3620" width="200" height="40" style="fill:white;stroke:black;stroke-width:1" /><text x="1130" y="3630" font-size="10" style="fill:blue">xs:attribute</text><path d="M1100 3640 C1120 3640 1100 3640 1120 3640" style="fill:transparent;stroke:black" /><text x="1130" y="3640" font-size="8" style="fill:black">name: unidades</text><text x="1130" y="3650" font-size="8" style="fill:black">type: xs:string</text><text x="1130" y="3660" font-size="8" style="fill:black">use: required</text><rect x="240" y="3870" width="200" height="40" style="fill:white;stroke:black;stroke-width:1" /><text x="250" y="3880" font-size="10" style="fill:blue">xs:element</text><path d="M220 40 C240 40 220 3890 240 3890" style="fill:transparent;stroke:black" /><text x="250" y="3890" font-size="8" style="fill:black">name: referencias</text><rect x="460" y="3870" width="200" height="40" style="fill:white;stroke:black;stroke-width:1" /><text x="470" y="3880" font-size="10" style="fill:blue">xs:complexType</text><path d="M440 3890 C460 3890 440 3890 460 3890" style="fill:transparent;stroke:black" /><rect x="680" y="3870" width="200" height="40" style="fill:white;stroke:black;stroke-width:1" /><text x="690" y="3880" font-size="10" style="fill:blue">xs:sequence</text><path d="M660 3890 C680 3890 660 3890 680 3890" style="fill:transparent;stroke:black" /><rect x="900" y="3870" width="200" height="40" style="fill:white;stroke:black;stroke-width:1" /><text x="910" y="3880" font-size="10" style="fill:blue">xs:element</text><path d="M880 3890 C900 3890 880 3890 900 3890" style="fill:transparent;stroke:black" /><text x="910" y="3890" font-size="8" style="fill:black">minOccurs: 3</text><text x="910" y="3900" font-size="8" style="fill:black">maxOccurs: unbounded</text><text x="910" y="3910" font-size="8" style="fill:black">ref: referencia</text><rect x="240" y="4070" width="200" height="40" style="fill:white;stroke:black;stroke-width:1" /><text x="250" y="4080" font-size="10" style="fill:blue">xs:element</text><path d="M220 40 C240 40 220 4090 240 4090" style="fill:transparent;stroke:black" /><text x="250" y="4090" font-size="8" style="fill:black">name: referencia</text><rect x="460" y="4070" width="200" height="40" style="fill:white;stroke:black;stroke-width:1" /><text x="470" y="4080" font-size="10" style="fill:blue">xs:complexType</text><path d="M440 4090 C460 4090 440 4090 460 4090" style="fill:transparent;stroke:black" /><rect x="680" y="4070" width="200" height="40" style="fill:white;stroke:black;stroke-width:1" /><text x="690" y="4080" font-size="10" style="fill:blue">xs:simpleContent</text><path d="M660 4090 C680 4090 660 4090 680 4090" style="fill:transparent;stroke:black" /><rect x="900" y="4070" width="200" height="40" style="fill:white;stroke:black;stroke-width:1" /><text x="910" y="4080" font-size="10" style="fill:blue">xs:extension</text><path d="M880 4090 C900 4090 880 4090 900 4090" style="fill:transparent;stroke:black" /><text x="910" y="4090" font-size="8" style="fill:black">base: xs:anyURI</text><rect x="1120" y="4070" width="200" height="40" style="fill:white;stroke:black;stroke-width:1" /><text x="1130" y="4080" font-size="10" style="fill:blue">xs:attribute</text><path d="M1100 4090 C1120 4090 1100 4090 1120 4090" style="fill:transparent;stroke:black" /><text x="1130" y="4090" font-size="8" style="fill:black">name: tipo</text><text x="1130" y="4100" font-size="8" style="fill:black">type: xs:string</text><text x="1130" y="4110" font-size="8" style="fill:black">use: required</text><rect x="240" y="4320" width="200" height="40" style="fill:white;stroke:black;stroke-width:1" /><text x="250" y="4330" font-size="10" style="fill:blue">xs:element</text><path d="M220 40 C240 40 220 4340 240 4340" style="fill:transparent;stroke:black" /><text x="250" y="4340" font-size="8" style="fill:black">name: hitos</text><rect x="460" y="4320" width="200" height="40" style="fill:white;stroke:black;stroke-width:1" /><text x="470" y="4330" font-size="10" style="fill:blue">xs:complexType</text><path d="M440 4340 C460 4340 440 4340 460 4340" style="fill:transparent;stroke:black" /><rect x="680" y="4320" width="200" height="40" style="fill:white;stroke:black;stroke-width:1" /><text x="690" y="4330" font-size="10" style="fill:blue">xs:sequence</text><path d="M660 4340 C680 4340 660 4340 680 4340" style="fill:transparent;stroke:black" /><rect x="900" y="4320" width="200" height="40" style="fill:white;stroke:black;stroke-width:1" /><text x="910" y="4330" font-size="10" style="fill:blue">xs:element</text><path d="M880 4340 C900 4340 880 4340 900 4340" style="fill:transparent;stroke:black" /><text x="910" y="4340" font-size="8" style="fill:black">minOccurs: 3</text><text x="910" y="4350" font-size="8" style="fill:black">maxOccurs: unbounded</text><text x="910" y="4360" font-size="8" style="fill:black">ref: hito</text><rect x="240" y="4520" width="200" height="40" style="fill:white;stroke:black;stroke-width:1" /><text x="250" y="4530" font-size="10" style="fill:blue">xs:element</text><path d="M220 40 C240 40 220 4540 240 4540" style="fill:transparent;stroke:black" /><text x="250" y="4540" font-size="8" style="fill:black">name: hito</text><rect x="460" y="4520" width="200" height="40" style="fill:white;stroke:black;stroke-width:1" /><text x="470" y="4530" font-size="10" style="fill:blue">xs:complexType</text><path d="M440 4540 C460 4540 440 4540 460 4540" style="fill:transparent;stroke:black" /><rect x="680" y="4520" width="200" height="40" style="fill:white;stroke:black;stroke-width:1" /><text x="690" y="4530" font-size="10" style="fill:blue">xs:sequence</text><path d="M660 4540 C680 4540 660 4540 680 4540" style="fill:transparent;stroke:black" /><rect x="900" y="4520" width="200" height="40" style="fill:white;stroke:black;stroke-width:1" /><text x="910" y="4530" font-size="10" style="fill:blue">xs:element</text><path d="M880 4540 C900 4540 880 4540 900 4540" style="fill:transparent;stroke:black" /><text x="910" y="4540" font-size="8" style="fill:black">ref: nombre</text><text x="910" y="4550" font-size="8" style="fill:black">minOccurs: 1</text><text x="910" y="4560" font-size="8" style="fill:black">maxOccurs: 1</text><rect x="900" y="4570" width="200" height="40" style="fill:white;stroke:black;stroke-width:1" /><text x="910" y="4580" font-size="10" style="fill:blue">xs:element</text><path d="M880 4540 C900 4540 880 4590 900 4590" style="fill:transparent;stroke:black" /><text x="910" y="4590" font-size="8" style="fill:black">ref: descripcion</text><text x="910" y="4600" font-size="8" style="fill:black">minOccurs: 1</text><text x="910" y="4610" font-size="8" style="fill:black">maxOccurs: 1</text><rect x="900" y="4620" width="200" height="40" style="fill:white;stroke:black;stroke-width:1" /><text x="910" y="4630" font-size="10" style="fill:blue">xs:element</text><path d="M880 4540 C900 4540 880 4640 900 4640" style="fill:transparent;stroke:black" /><text x="910" y="4640" font-size="8" style="fill:black">ref: coordenadas</text><text x="910" y="4650" font-size="8" style="fill:black">minOccurs: 1</text><text x="910" y="4660" font-size="8" style="fill:black">maxOccurs: 1</text><rect x="900" y="4670" width="200" height="40" style="fill:white;stroke:black;stroke-width:1" /><text x="910" y="4680" font-size="10" style="fill:blue">xs:element</text><path d="M880 4540 C900 4540 880 4690 900 4690" style="fill:transparent;stroke:black" /><text x="910" y="4690" font-size="8" style="fill:black">ref: distancia_predecesor</text><text x="910" y="4700" font-size="8" style="fill:black">minOccurs: 1</text><text x="910" y="4710" font-size="8" style="fill:black">maxOccurs: 1</text><rect x="900" y="4720" width="200" height="40" style="fill:white;stroke:black;stroke-width:1" /><text x="910" y="4730" font-size="10" style="fill:blue">xs:element</text><path d="M880 4540 C900 4540 880 4740 900 4740" style="fill:transparent;stroke:black" /><text x="910" y="4740" font-size="8" style="fill:black">ref: imagenes</text><text x="910" y="4750" font-size="8" style="fill:black">minOccurs: 1</text><text x="910" y="4760" font-size="8" style="fill:black">maxOccurs: 1</text><rect x="240" y="4920" width="200" height="40" style="fill:white;stroke:black;stroke-width:1" /><text x="250" y="4930" font-size="10" style="fill:blue">xs:element</text><path d="M220 40 C240 40 220 4940 240 4940" style="fill:transparent;stroke:black" /><text x="250" y="4940" font-size="8" style="fill:black">name: nombre</text><text x="250" y="4950" font-size="8" style="fill:black">type: xs:string</text><rect x="240" y="4970" width="200" height="40" style="fill:white;stroke:black;stroke-width:1" /><text x="250" y="4980" font-size="10" style="fill:blue">xs:element</text><path d="M220 40 C240 40 220 4990 240 4990" style="fill:transparent;stroke:black" /><text x="250" y="4990" font-size="8" style="fill:black">name: distancia_predecesor</text><rect x="460" y="4970" width="200" height="40" style="fill:white;stroke:black;stroke-width:1" /><text x="470" y="4980" font-size="10" style="fill:blue">xs:complexType</text><path d="M440 4990 C460 4990 440 4990 460 4990" style="fill:transparent;stroke:black" /><rect x="680" y="4970" width="200" height="40" style="fill:white;stroke:black;stroke-width:1" /><text x="690" y="4980" font-size="10" style="fill:blue">xs:simpleContent</text><path d="M660 4990 C680 4990 660 4990 680 4990" style="fill:transparent;stroke:black" /><rect x="900" y="4970" width="200" height="40" style="fill:white;stroke:black;stroke-width:1" /><text x="910" y="4980" font-size="10" style="fill:blue">xs:extension</text><path d="M880 4990 C900 4990 880 4990 900 4990" style="fill:transparent;stroke:black" /><text x="910" y="4990" font-size="8" style="fill:black">base: xs:float</text><rect x="1120" y="4970" width="200" height="40" style="fill:white;stroke:black;stroke-width:1" /><text x="1130" y="4980" font-size="10" style="fill:blue">xs:attribute</text><path d="M1100 4990 C1120 4990 1100 4990 1120 4990" style="fill:transparent;stroke:black" /><text x="1130" y="4990" font-size="8" style="fill:black">name: unidades</text><text x="1130" y="5000" font-size="8" style="fill:black">type: xs:string</text><text x="1130" y="5010" font-size="8" style="fill:black">use: required</text><rect x="240" y="5220" width="200" height="40" style="fill:white;stroke:black;stroke-width:1" /><text x="250" y="5230" font-size="10" style="fill:blue">xs:element</text><path d="M220 40 C240 40 220 5240 240 5240" style="fill:transparent;stroke:black" /><text x="250" y="5240" font-size="8" style="fill:black">name: imagenes</text><rect x="460" y="5220" width="200" height="40" style="fill:white;stroke:black;stroke-width:1" /><text x="470" y="5230" font-size="10" style="fill:blue">xs:complexType</text><path d="M440 5240 C460 5240 440 5240 460 5240" style="fill:transparent;stroke:black" /><rect x="680" y="5220" width="200" height="40" style="fill:white;stroke:black;stroke-width:1" /><text x="690" y="5230" font-size="10" style="fill:blue">xs:sequence</text><path d="M660 5240 C680 5240 660 5240 680 5240" style="fill:transparent;stroke:black" /><rect x="900" y="5220" width="200" height="40" style="fill:white;stroke:black;stroke-width:1" /><text x="910" y="5230" font-size="10" style="fill:blue">xs:element</text><path d="M880 5240 C900 5240 880 5240 900 5240" style="fill:transparent;stroke:black" /><text x="910" y="5240" font-size="8" style="fill:black">minOccurs: 1</text><text x="910" y="5250" font-size="8" style="fill:black">maxOccurs: 5</text><text x="910" y="5260" font-size="8" style="fill:black">ref: imagen</text><rect x="240" y="5420" width="200" height="40" style="fill:white;stroke:black;stroke-width:1" /><text x="250" y="5430" font-size="10" style="fill:blue">xs:element</text><path d="M220 40 C240 40 220 5440 240 5440" style="fill:transparent;stroke:black" /><text x="250" y="5440" font-size="8" style="fill:black">name: imagen</text><rect x="460" y="5420" width="200" height="40" style="fill:white;stroke:black;stroke-width:1" /><text x="470" y="5430" font-size="10" style="fill:blue">xs:complexType</text><path d="M440 5440 C460 5440 440 5440 460 5440" style="fill:transparent;stroke:black" /><rect x="680" y="5420" width="200" height="40" style="fill:white;stroke:black;stroke-width:1" /><text x="690" y="5430" font-size="10" style="fill:blue">xs:simpleContent</text><path d="M660 5440 C680 5440 660 5440 680 5440" style="fill:transparent;stroke:black" /><rect x="900" y="5420" width="200" height="40" style="fill:white;stroke:black;stroke-width:1" /><text x="910" y="5430" font-size="10" style="fill:blue">xs:extension</text><path d="M880 5440 C900 5440 880 5440 900 5440" style="fill:transparent;stroke:black" /><text x="910" y="5440" font-size="8" style="fill:black">base: xs:anyURI</text><rect x="1120" y="5420" width="200" height="40" style="fill:white;stroke:black;stroke-width:1" /><text x="1130" y="5430" font-size="10" style="fill:blue">xs:attribute</text><path d="M1100 5440 C1120 5440 1100 5440 1120 5440" style="fill:transparent;stroke:black" /><text x="1130" y="5440" font-size="8" style="fill:black">name: tipo</text><text x="1130" y="5450" font-size="8" style="fill:black">type: xs:string</text><text x="1130" y="5460" font-size="8" style="fill:black">use: required</text></svg>